<svg width="905" height="438" viewBox="0 0 905 438" fill="none" xmlns="http://www.w3.org/2000/svg">
<path d="M218.196 335.203H115.593V437.248H218.196V335.203Z" fill="#1A28D1"/>
<path d="M115.334 324.216H217.937V227.746H115.334L115.334 324.216Z" fill="#1A28D1"/>
<path d="M0.999992 324.216H103.603L103.603 227.746H0.999992L0.999992 324.216Z" fill="#1A28D1"/>
<path d="M229.353 324.046C229.353 267.725 275.357 222 331.957 222V324.046H229.353Z" fill="#1A28D1"/>
<path d="M343.719 437.541L446.322 437.541L446.322 335.495L343.719 335.495L343.719 437.541Z" fill="#1A28D1"/>
<path d="M229.353 437.527L331.957 335.203H229.353V437.527Z" fill="#1A28D1"/>
<path d="M446.55 324.046C446.55 267.725 400.546 222 343.947 222V324.046H446.55Z" fill="#1A28D1"/>
<path d="M688 324.046C688 267.725 734.004 222 790.603 222V324.046H688Z" fill="#1A28D1"/>
<path d="M688 335.203L790.603 437.527V335.203H688Z" fill="#1A28D1"/>
<path d="M904.921 437.527C904.921 381.207 858.917 335.481 802.318 335.481V437.527H904.921Z" fill="#1A28D1"/>
<path d="M674.895 335.203C674.895 391.523 628.89 437.248 572.291 437.248V335.203H674.895Z" fill="#1A28D1"/>
<path d="M457.704 335.203C457.704 391.523 503.708 437.248 560.307 437.248V335.203H457.704Z" fill="#1A28D1"/>
<path d="M509.006 324.046C537.339 324.046 560.307 301.202 560.307 273.023C560.307 244.844 537.339 222 509.006 222C480.672 222 457.704 244.844 457.704 273.023C457.704 301.202 480.672 324.046 509.006 324.046Z" fill="#1A28D1"/>
<path d="M853.62 324.046C881.953 324.046 904.921 301.202 904.921 273.023C904.921 244.844 881.953 222 853.62 222C825.286 222 802.318 244.844 802.318 273.023C802.318 301.202 825.286 324.046 853.62 324.046Z" fill="#1A28D1"/>
<path d="M103.609 335.203H77.1214V437.248H103.609V335.203Z" fill="#1A28D1"/>
<path d="M65.4036 335.203H38.9163V437.248H65.4036V335.203Z" fill="#1A28D1"/>
<path d="M27.4929 335.203H1.00555V437.248H27.4929V335.203Z" fill="#1A28D1"/>
<path d="M676.01 222H649.522V324.046H676.01V222Z" fill="#1A28D1"/>
<path d="M637.814 222H611.326V324.046H637.814V222Z" fill="#1A28D1"/>
<path d="M599.9 222H573.413V324.046H599.9V222Z" fill="#1A28D1"/>
<path d="M218.196 102.046C218.196 45.7254 172.192 0 115.593 0V102.046H218.196Z" fill="#1A28D1"/>
<path d="M218.196 113.196C218.196 169.517 172.192 215.242 115.593 215.242V113.196H218.196Z" fill="#1A28D1"/>
<path d="M52.3042 102.046C80.6373 102.046 103.606 79.2021 103.606 51.0229C103.606 22.8437 80.6373 0 52.3042 0C23.971 0 1.00244 22.8437 1.00244 51.0229C1.00244 79.2021 23.971 102.046 52.3042 102.046Z" fill="#1A28D1"/>
<path d="M103.609 113.196H1.00555V215.242H103.609V113.196Z" fill="#1A28D1"/>
<path d="M676.016 102.046C676.016 45.7254 630.012 0 573.413 0V102.046H676.016Z" fill="#1A28D1"/>
<path d="M676.016 113.196C676.016 169.517 630.012 215.242 573.413 215.242V113.196H676.016Z" fill="#1A28D1"/>
<path d="M458.534 113.196C458.534 169.517 504.538 215.242 561.137 215.242V113.196H458.534Z" fill="#1A28D1"/>
<path d="M458.534 102.046C458.534 45.7254 504.538 0 561.137 0V102.046H458.534Z" fill="#1A28D1"/>
<path d="M446.55 102.046C446.55 45.7254 400.546 0 343.947 0V102.046H446.55Z" fill="#1A28D1"/>
<path d="M446.55 215.242L343.947 113.196H446.55V215.242Z" fill="#1A28D1"/>
<path d="M229.353 102.046C229.353 45.7254 275.357 0 331.957 0V102.046H229.353Z" fill="#1A28D1"/>
<path d="M332.232 113.196H305.745V215.242H332.232V113.196Z" fill="#1A28D1"/>
<path d="M294.036 113.196H267.549V215.242H294.036V113.196Z" fill="#1A28D1"/>
<path d="M256.119 113.196H229.632V215.242H256.119V113.196Z" fill="#1A28D1"/>
</svg>
